<svg width="53px" height="1431px" viewBox="0 0 53 1431" version="1.1"
	xmlns="http://www.w3.org/2000/svg"
	xmlns:xlink="http://www.w3.org/1999/xlink">
	<defs></defs>
	<g id="Page-1" stroke="none" stroke-width="1" fill="none" fill-rule="evenodd">
		<g id="brands-colors">
			<g id="Ads" fill-rule="nonzero">
				<rect id="Background" fill="#2EB8D7" x="0.035" y="0" width="52.93" height="52.927"></rect>
				<g id="Icon" transform="translate(11.000000, 10.000000)">
					<rect id="rect65" fill="#333333" x="0.046" y="6.15" width="25.749" height="25.783"></rect>
					<polygon id="polygon67" fill="#28889C" points="5.203 0.993 5.203 16.463 15.483 16.463 15.483 26.776 30.953 26.776 30.953 0.993"></polygon>
					<polygon id="polygon69" fill="#FFFFFF" points="10.292 6.15 10.292 11.307 20.639 11.307 20.639 21.62 25.795 21.62 25.795 6.15"></polygon>
				</g>
			</g>
			<g id="Mostaql" transform="translate(0.000000, 138.000000)" fill-rule="nonzero">
				<rect id="rect58" fill="#2CAAE2" x="0" y="0.054" width="52.93" height="52.927"></rect>
				<path d="M26.462,40.839 C18.566,40.839 12.145,34.417 12.145,26.521 C12.145,18.626 18.566,12.203 26.462,12.203 C34.358,12.203 40.781,18.627 40.781,26.521 C40.781,34.417 34.357,40.839 26.462,40.839 M26.462,19.611 C22.652,19.611 19.552,22.709 19.552,26.521 C19.552,30.333 22.652,33.431 26.462,33.431 C30.274,33.431 33.375,30.332 33.375,26.521 C33.375,22.71 30.273,19.611 26.462,19.611" id="path60" fill="#FFFFFF"></path>
			</g>
			<g id="Khamsat" transform="translate(0.000000, 275.000000)" fill-rule="nonzero">
				<rect id="rect45" fill="#F3AD2D" x="0" y="0.625" width="52.928" height="52.928"></rect>
				<path d="M23.213,28.105 C23.713,27.556 24.296,27.167 24.955,26.926 L24.955,22.221 C23.001,22.542 21.326,23.44 19.933,24.923 C18.156,26.816 17.265,29.09 17.265,31.749 L21.829,31.749 C21.83,30.334 22.291,29.12 23.213,28.105" id="path47" fill="#353535"></path>
				<polygon id="polygon49" fill="#353535" points="24.955 36.313 17.265 36.313 17.265 38.597 17.265 40.878 19.078 40.878 22.323 40.878 24.955 40.878"></polygon>
				<path d="M33.242,24.815 C31.419,23.065 29.222,22.155 26.651,22.084 C26.492,22.084 26.336,22.087 26.181,22.094 L26.181,26.666 C26.383,26.649 26.589,26.642 26.803,26.647 C28.09,26.691 29.189,27.18 30.101,28.116 C31.017,29.052 31.482,30.162 31.497,31.448 L31.497,31.47 L31.497,31.598 L31.473,31.726 C31.403,32.997 30.905,34.08 29.975,34.973 C29.044,35.866 27.938,36.312 26.652,36.312 L26.182,36.312 L26.182,40.877 L26.804,40.877 C29.303,40.834 31.45,39.923 33.242,38.145 C35.035,36.364 35.969,34.226 36.039,31.726 L36.039,31.706 L36.039,31.599 L36.039,31.471 L36.039,31.342 C35.998,28.741 35.063,26.566 33.242,24.815" id="path51" fill="#353535"></path>
				<path d="M24.955,13.597 L16.888,13.597 L16.888,27.803 C17.735,25.309 19.314,23.402 21.632,22.08 L21.632,18.34 L24.955,18.34 L24.955,13.597 Z" id="path53" fill="#353535"></path>
				<rect id="rect55" fill="#353535" x="26.181" y="13.598" width="8.68" height="4.743"></rect>
			</g>
			<g id="IO" transform="translate(0.000000, 413.000000)" fill-rule="nonzero">
				<rect id="rect36" fill="#F26A38" x="0" y="0.197" width="52.928" height="52.926"></rect>
				<path d="M10.692,14.154 C10.849,14.16 11.007,14.172 11.163,14.172 C14.913,14.172 18.662,14.172 22.41,14.172 L22.899,14.172 C22.195,23.029 21.494,31.834 20.794,40.643 C20.769,40.645 20.742,40.657 20.718,40.661 C20.332,39.763 19.944,38.862 19.558,37.962 C19.052,36.773 18.54,35.597 18.052,34.407 C17.935,34.128 17.797,34.011 17.475,34.011 C15.345,34.032 13.214,34.019 11.083,34.023 C10.952,34.023 10.822,34.044 10.692,34.054 L10.692,14.154 Z M14.225,23.824 C14.225,25.941 14.23,28.056 14.218,30.174 C14.217,30.492 14.298,30.615 14.635,30.613 C15.463,30.59 16.293,30.592 17.121,30.603 C17.412,30.615 17.506,30.513 17.504,30.222 C17.496,25.993 17.496,21.751 17.505,17.519 C17.506,17.195 17.38,17.124 17.089,17.128 C16.286,17.144 15.484,17.149 14.682,17.126 C14.321,17.114 14.213,17.224 14.217,17.589 C14.236,19.667 14.225,21.746 14.225,23.824 Z" id="path38" fill="#FFFFFF"></path>
				<path d="M21.835,40.646 C22.887,31.835 23.938,23.021 24.991,14.193 L42.238,14.193 L42.238,34.019 L41.717,34.019 C36.735,34.019 31.742,34.023 26.759,34.011 C26.415,34.007 26.22,34.116 26.035,34.406 C24.743,36.386 23.433,38.359 22.131,40.336 C22.06,40.445 21.985,40.553 21.913,40.662 C21.887,40.656 21.859,40.652 21.835,40.646 M33.402,30.595 C37.181,30.605 40.232,27.62 40.242,23.907 C40.252,20.167 37.24,17.149 33.484,17.136 C29.679,17.124 26.629,20.111 26.623,23.845 C26.618,27.58 29.639,30.589 33.402,30.595" id="path40" fill="#FFFFFF"></path>
				<path d="M37.045,23.898 C37.051,25.865 35.402,27.543 33.451,27.556 C31.494,27.574 29.812,25.872 29.82,23.892 C29.83,21.919 31.488,20.249 33.433,20.251 C35.381,20.255 37.039,21.929 37.045,23.898" id="path42" fill="#FFFFFF"></path>
			</g>
			<g id="Academy" transform="translate(0.000000, 550.000000)" fill-rule="nonzero">
				<rect id="rect26" fill="#616571" x="0" y="0.767" width="52.928" height="52.93"></rect>
				<g id="icon" transform="translate(11.000000, 15.000000)" fill="#F4F4F4">
					<path d="M14.852,8.535 L21.098,8.535 L21.811,5.064 L17.458,5.064 C14.357,5.064 11.766,5.834 9.685,7.373 C7.759,8.797 6.46,11.115 5.785,14.318 L5.312,17.074 L23.135,17.078 L23.69,14.379 L13.56,14.377 L14.852,8.535 Z" id="path29" opacity="0.2"></path>
					<polygon id="polygon31" opacity="0.5" points="24.417 25.111 24.965 22.371 1.488 22.371 0.933 25.111"></polygon>
					<path d="M25.493,19.81 L27.956,7.652 L24.027,7.65 L25.465,0.318 L17.399,0.316 C13.854,0.316 10.807,1.242 8.336,3.064 C5.752,4.976 4.234,8.029 3.518,12.185 L2,19.81 L25.493,19.81 Z M6.066,12.675 C6.655,9.237 7.968,6.745 9.968,5.267 C11.953,3.796 14.453,3.052 17.397,3.052 L22.223,3.052 L21.096,8.534 L14.851,8.534 L14.16,11.651 L24.25,11.645 L23.134,17.075 L5.311,17.073 L6.066,12.675 Z" id="path33"></path>
				</g>
			</g>
			<g id="Suar" transform="translate(0.000000, 688.000000)" fill-rule="nonzero">
				<rect id="background" fill="#6B7685" x="0" y="0.335" width="53" height="52.93"></rect>
				<path d="M39.691,19.341 L18.408,19.341 C16.873,19.341 15.629,20.585 15.629,22.122 L15.629,35.761 C15.629,37.298 16.873,38.54 18.408,38.54 L24.882,38.54 L29.051,42.71 L33.219,38.54 L39.694,38.54 C41.229,38.54 42.473,37.298 42.473,35.761 L42.473,22.122 C42.473,20.585 41.229,19.341 39.691,19.341" id="path5" fill="#58B6E6"></path>
				<path d="M14.472,18.083 L10.843,18.698 C9.329,18.954 8.311,20.386 8.568,21.903 L10.848,35.344 C11.078,36.703 12.253,37.66 13.585,37.66 C13.739,37.66 13.896,37.648 14.052,37.621 L16.082,37.277 C15.795,36.839 15.629,36.318 15.629,35.754 L15.629,31.947 C14.342,31.615 13.444,30.394 13.559,29.025 L14.472,18.083" id="path7" fill="#55667F"></path>
				<path d="M15.629,31.955 L15.629,35.762 C15.629,36.326 15.796,36.848 16.082,37.285 L20.435,36.547 L28.654,35.152 L35.036,34.072 C35.4,34.008 35.734,33.881 36.029,33.699 L30.855,33.265 L22.544,32.572 L16.092,32.033 C15.936,32.019 15.78,31.994 15.629,31.955" id="path9" fill="#3AA8E6"></path>
				<path d="M17.458,12.89 C16.028,12.89 14.813,13.988 14.692,15.441 L14.471,18.086 L31.827,15.143 C31.984,15.12 32.14,15.108 32.295,15.108 C33.626,15.108 34.802,16.067 35.032,17.421 L35.359,19.347 L39.691,19.347 C40.273,19.347 40.814,19.529 41.261,19.831 L41.441,17.677 C41.568,16.15 40.433,14.802 38.902,14.677 L17.692,12.907 C17.615,12.894 17.537,12.89 17.458,12.89" id="path11" fill="#90C859"></path>
				<path d="M39.691,19.341 L35.359,19.341 L37.312,30.864 C37.505,32.01 36.962,33.12 36.029,33.696 L37.306,33.8 C37.382,33.808 37.46,33.81 37.538,33.81 C38.97,33.81 40.184,32.714 40.306,31.261 L41.261,19.823 C40.816,19.521 40.275,19.341 39.691,19.341" id="path13" fill="#63E0DF"></path>
				<path d="M32.296,15.101 C32.143,15.101 31.984,15.115 31.828,15.14 L14.472,18.083 L13.558,29.032 C13.444,30.401 14.341,31.62 15.628,31.952 L15.628,22.122 C15.628,20.585 16.872,19.341 18.407,19.341 L35.359,19.341 L35.033,17.415 C34.803,16.06 33.627,15.101 32.296,15.101" id="path15" fill="#60A058"></path>
				<path d="M35.359,19.341 L18.408,19.341 C16.873,19.341 15.629,20.585 15.629,22.122 L15.629,31.952 C15.78,31.991 15.936,32.015 16.096,32.032 L22.548,32.571 L30.858,33.259 L36.034,33.697 C36.97,33.121 37.513,32.011 37.315,30.865 L35.359,19.341" id="path17" fill="#41DADF"></path>
				<circle id="circle19" fill="#FFFFFF" cx="26.879" cy="29.069" r="6.466"></circle>
				<circle id="circle21" fill="#6B7684" cx="26.878" cy="29.07" r="4.127"></circle>
				<path d="M37.296,22.242 L36.096,22.242 C35.746,22.242 35.41,22.381 35.165,22.629 L35.139,22.656 C34.317,23.484 34.903,24.892 36.069,24.892 L36.319,24.892 C36.522,24.892 37.298,24.878 37.494,24.853 C39.102,24.636 38.918,22.242 37.296,22.242 Z" id="path23" fill="#FFFFFF"></path>
			</g>
			<g id="Baaeed" transform="translate(0.000000, 825.000000)" fill-rule="nonzero">
				<rect id="Rectangle-path" fill="#7566F1" x="0" y="0" width="53" height="54"></rect>
				<g id="Group" transform="translate(11.000000, 12.000000)" fill="#FFFFFF">
					<path d="M12.4,15.4879845 C12.4,17.2182171 13.8003861,18.624031 15.5239382,18.624031 C17.2474903,18.624031 18.6478764,17.2182171 18.6478764,15.4879845 C18.6478764,13.7577519 17.2474903,12.351938 15.5239382,12.351938 C13.8003861,12.351938 12.4,13.7577519 12.4,15.4879845 Z" id="Shape"></path>
					<path d="M3.0042471,14.4546512 C3.50694981,8.3627907 8.46216216,3.4244186 14.5305019,2.95581395 C16.9482625,2.7755814 19.3540541,3.28023256 21.4725869,4.43372093 C22.0590734,4.75813953 22.7891892,4.62596899 23.2200772,4.10930233 C23.5073359,3.78488372 23.6150579,3.35232558 23.5432432,2.91976744 C23.4594595,2.4872093 23.196139,2.12674419 22.8131274,1.91046512 C20.5749035,0.696899225 18.06139,0.0600775194 15.5,0.0600775194 C15.1888031,0.0600775194 14.8776062,0.0720930233 14.5664093,0.0841085271 C6.81042471,0.552713178 0.598455598,6.77674419 0.131660232,14.5627907 C-0.0837837838,18.1674419 0.957528958,21.748062 3.08803089,24.655814 C3.33938224,25.0042636 3.74633205,25.2205426 4.17722008,25.2445736 C4.60810811,25.2565891 5.01505792,25.0883721 5.3023166,24.775969 C5.74517375,24.2713178 5.78108108,23.5143411 5.38610039,22.9736434 C3.6027027,20.5104651 2.75289575,17.4945736 3.0042471,14.4546512 Z" id="Shape" opacity="0.7"></path>
					<path d="M30.3297297,11.1984496 C29.934749,9.84069767 29.3722008,8.55503876 28.6420849,7.37751938 C28.4266409,7.01705426 28.0555985,6.77674419 27.6366795,6.71666667 C27.2177606,6.65658915 26.7988417,6.78875969 26.4756757,7.06511628 C25.9610039,7.52170543 25.8532819,8.30271318 26.2243243,8.90348837 C26.8826255,9.98488372 27.3853282,11.1624031 27.6965251,12.4 C29.0370656,17.6387597 26.9065637,23.129845 22.3702703,26.0856589 C22.2625483,26.1577519 22.1189189,26.1337209 22.0351351,26.0375969 L18.2648649,21.8081395 C18.0972973,21.6158915 17.8220077,21.5437984 17.5706564,21.627907 C16.6131274,21.9523256 15.6196911,22.0484496 14.6142857,21.9042636 C11.753668,21.5077519 9.5034749,19.2248062 9.13243243,16.3651163 C8.90501931,14.5627907 9.3957529,12.7965116 10.5447876,11.4027132 C11.6818533,10.0209302 13.3335907,9.16782946 15.1050193,9.05968992 L15.3683398,9.04767442 C15.7274131,9.04767442 16.0146718,9.05968992 16.3138996,9.09573643 C19.0907336,9.45620155 21.3528958,11.6550388 21.807722,14.4426357 C22.023166,15.7883721 21.8316602,17.1341085 21.2332046,18.3356589 C20.9579151,18.8883721 21.0177606,19.5251938 21.3648649,19.9577519 C21.6760618,20.3422481 22.130888,20.5224806 22.6216216,20.4744186 C23.1123552,20.4143411 23.5312741,20.1139535 23.7586873,19.6693798 C24.5606178,18.0593023 24.8837838,16.2569767 24.6803089,14.4546512 C24.2733591,10.705814 21.5444015,7.52170543 17.9057915,6.5124031 C17.8100386,6.47635659 17.7382239,6.45232558 17.6664093,6.42829457 C17.3073359,6.34418605 16.9482625,6.28410853 16.5891892,6.23604651 C16.3498069,6.2120155 16.1104247,6.2 15.8830116,6.1879845 L15.7992278,6.1879845 C15.6436293,6.1879845 15.5,6.1879845 15.3444015,6.1879845 C15.2606178,6.1879845 15.1648649,6.1879845 15.0810811,6.2 L14.9254826,6.2120155 C14.5544402,6.23604651 14.2312741,6.27209302 13.9320463,6.32015504 C13.8722008,6.33217054 13.8003861,6.34418605 13.7405405,6.36821705 C9.38378378,7.23333333 6.23590734,11.0782946 6.23590734,15.524031 C6.23590734,18.7922481 7.98339768,21.8682171 10.8081081,23.5503876 C10.8679537,23.5864341 10.9158301,23.6585271 10.9277992,23.7306202 C10.9397683,23.8027132 10.9158301,23.8868217 10.8679537,23.9348837 L7.43281853,27.779845 C7.3011583,27.924031 7.24131274,28.1282946 7.27722008,28.3205426 C7.3011583,28.5127907 7.40888031,28.6689922 7.57644788,28.7771318 C12.0888031,31.5166667 18.169112,31.6968992 22.8131274,29.1736434 C26.9903475,26.9027132 29.9586873,22.7693798 30.7366795,18.0593023 C31.107722,15.7643411 30.9640927,13.4213178 30.3297297,11.1984496 Z" id="Shape"></path>
				</g>
			</g>
			<g id="Ana" transform="translate(0.000000, 962.000000)" fill="#1A1E27">
				<path d="M0,0 L53,0 L53,54 L0,54 L0,0 Z M33,41.0505352 L33,13 L40.8320947,13 L40.8320947,41.0505352 L33,41.0505352 Z M23,23 L30.7185751,23 L30.7185751,30.8360154 L23.0002833,30.8360154 L23.0002833,23 L23,23 Z M13,13 L20.8321891,13 L20.8321891,30.9435588 L13.0000944,30.9435588 L13.0000944,13 L13,13 Z M13,33.0002835 L13,40.8362989 L30.82125,40.8362989 L30.82125,33 L13,33 L13,33.0002835 Z" id="ANA"></path>
			</g>
			<g id="Wiki" transform="translate(0.000000, 1101.000000)" fill-rule="nonzero">
				<polygon id="Shape" fill="#205A23" points="0.0377670244 0.0919371192 52.9159032 0.0919371192 52.9159032 53.9608681 0.0377670244 53.9608681"></polygon>
				<g id="wiki-logo-dark" transform="translate(11.904297, 12.070588)" fill="#FFFFFF">
					<path d="M18.9539678,23.0096477 L19.7990054,23.5069815 L19.823526,23.457442 C21.0061924,21.7663084 21.634321,19.752803 21.634321,17.6391346 C21.6588415,14.9291631 20.6685636,12.3917664 18.8331419,10.5026442 C16.9978167,8.5871384 14.5352804,7.51764706 11.9274942,7.51764706 C6.54315567,7.51764706 2.17382812,12.0431354 2.17382812,17.5886553 C2.17382812,23.1341751 6.54339711,27.6352941 11.9274942,27.6352941 C12.8687212,27.6352941 13.7628194,27.5109607 14.6079536,27.2370293 L14.6560531,27.2117747 L14.4627133,26.2171072 L14.3900932,26.2423618 C13.5695858,26.4910287 12.7245482,26.6406266 11.8796071,26.6406266 C7.05082049,26.6406266 3.11511798,22.587108 3.11511798,17.6137706 C3.11511798,12.6404332 7.05082049,8.5869146 11.8796071,8.5869146 C16.7083937,8.5869146 20.6440962,12.6404332 20.6440962,17.6137706 C20.6440962,19.5283066 20.0650281,21.3691377 18.9540209,22.9601083 L18.9539678,23.0096477 Z" id="Shape"></path>
					<path d="M20.4597022,8.92782057 C18.1998554,6.57362943 15.1951849,5.29411765 11.9924774,5.29411765 C10.8751672,5.29411765 9.80731665,5.44806443 8.79001815,5.75496505 L8.74055359,5.78095553 L8.91416373,6.7276274 L8.98884474,6.70163691 C9.98200934,6.4197236 11.0004003,6.26679023 11.9936642,6.26679023 C18.0767974,6.26679023 23.0426204,11.358939 23.0426204,17.6549007 C23.0416505,23.9498386 18.0758042,29.016908 11.9926711,29.016908 C5.90953791,28.9909175 0.943714931,23.872553 0.943714931,17.6287976 C0.943714931,15.2486057 1.63912878,12.9962678 2.97950372,11.0520998 L3.02896828,11.0011169 L2.20940886,10.5152925 L2.18419241,10.5662754 C0.770099828,12.612578 0,15.0698252 0,17.6547983 C0,24.436482 5.3635854,29.9647059 11.9433008,29.9647059 C18.548342,29.9647059 23.9106859,24.436482 23.9106859,17.6547983 C23.9601505,14.353014 22.7186898,11.2569834 20.4599356,8.92766702 L20.4597022,8.92782057 Z" id="Shape"></path>
					<polygon id="Shape" points="10.4550781 22.0235294 11.4550047 22.0235294 13.8710938 12.9176471 12.8711671 12.9176471"></polygon>
					<polygon id="Shape" points="8.62828077 13.4470588 6.01159621 17.170769 5.796875 17.4706036 8.57439006 21.4083715 8.62832811 21.4941176 9.41992187 20.8802431 7.00457132 17.4705589 9.41992187 14.0608747"></polygon>
					<polygon id="Shape" points="15.1802662 13.4470588 14.3886719 14.0609355 16.8040242 17.4706316 14.4560024 20.7950398 14.4020643 20.8802409 15.1803109 21.4941176 17.7969974 17.7703946 18.0117187 17.4705589"></polygon>
					<path d="M18.6328125,0 C23.0618141,2.41750854 26.9639456,6.19486564 29.0878906,10.6941176 L29.0878906,0 L18.6328125,0 Z" id="Shape"></path>
				</g>
			</g>
			<g id="Picalica" transform="translate(0.000000, 1239.000000)" fill="#1A1E27">
				<path d="M0 0H52.93V52.927H0V0Z" fill="#42BA7C"/>
				<g clip-path="url(#clip0_3_89)">
					<path d="M37.9232 32.912C33.3224 40.848 24.2504 44.24 17.7056 40.464C11.1608 36.752 9.5408 27.28 14.2064 19.408C18.8072 11.472 27.8792 8.08 34.424 11.856C40.9688 15.568 42.5888 25.04 37.9232 32.912ZM27.1016 22.16C28.268 23.12 30.212 22.736 31.3784 21.328C32.48 19.92 32.4152 18 31.184 17.04C29.9528 16.08 28.0736 16.464 26.9072 17.872C25.7408 19.28 25.8704 21.2 27.1016 22.16ZM32.2208 25.488C32.2208 25.296 32.156 25.104 31.9616 24.976C31.7672 24.784 31.508 24.848 31.2488 24.912C31.1192 24.9547 30.9896 24.9973 30.86 25.04C29.4344 25.3813 28.0304 25.7227 26.648 26.064C26.2592 26.192 26 26.384 26 26.768V29.968C26 31.632 26 33.296 26 34.96C26 35.216 26.0648 35.472 26.2592 35.664C26.3456 35.7493 26.4752 35.8133 26.648 35.856C27.7496 36.048 29.0456 35.28 29.8232 34.576C30.6008 33.872 31.2488 32.912 31.7024 31.888C32.5448 29.904 32.2208 27.664 32.2208 25.488V25.488Z" fill="white"/>
				</g>
				<defs>
					<clipPath id="clip0_3_89">
						<rect width="30" height="32" fill="white" transform="translate(11 10)"/>
					</clipPath>
				</defs>
			</g>
			<g id="Picalica" transform="translate(0.000000, 1377.000000)" fill="#1A1E27">
				<path d="M0 0H52.93V52.927H0V0Z" fill="#615D9B"/>
				<ellipse cx="26.465" cy="26.4635" rx="14.7028" ry="14.7019" fill="white"/>
				<path d="M30.7242 24.0493C30.628 23.6964 30.4836 23.3595 30.2911 23.0547C30.1146 22.75 29.89 22.4612 29.6334 22.2045C29.3767 21.9479 29.0879 21.7233 28.7831 21.5469C28.4783 21.3704 28.1414 21.226 27.7885 21.1137C27.4356 21.0175 27.0666 20.9694 26.6816 20.9694H24.4998C24.3394 20.9694 24.179 21.0014 24.0185 21.0656C23.8742 21.1298 23.7458 21.21 23.6335 21.3223C23.5212 21.4346 23.441 21.5629 23.3769 21.7073C23.3127 21.8516 23.2806 22.0121 23.2806 22.1725V31.9577C23.2806 32.2785 23.4089 32.5833 23.6335 32.8079C23.8581 33.0325 24.1629 33.1608 24.4838 33.1608C24.8046 33.1608 25.1094 33.0325 25.334 32.8079C25.5586 32.5833 25.6869 32.2785 25.6869 31.9577V29.359H26.6495C27.8045 29.359 28.7992 28.9419 29.6173 28.1238C30.4355 27.3057 30.8526 26.2951 30.8526 25.1562C30.8686 24.7872 30.8205 24.4183 30.7242 24.0493ZM28.3179 25.862C28.2216 26.0866 28.0933 26.263 27.9329 26.4395C27.7724 26.5999 27.5799 26.7282 27.3553 26.8245C27.1468 26.9207 26.9222 26.9688 26.6655 26.9688H25.703V23.3756H26.6655C26.9062 23.3756 27.1308 23.4237 27.3553 23.5199C27.5799 23.6162 27.7724 23.7445 27.9329 23.9049C28.0933 24.0653 28.2216 24.2578 28.3179 24.4824C28.4141 24.691 28.4623 24.9316 28.4623 25.1882C28.4623 25.4128 28.4141 25.6374 28.3179 25.862Z" fill="#615D9B"/>
				<path d="M26.473 15.435C25.9115 15.435 25.4784 15.8842 25.4784 16.4296C25.4784 16.991 25.9276 17.4241 26.473 17.4241C31.4461 17.4241 35.4888 21.4666 35.4888 26.4394C35.4888 27.0008 35.938 27.45 36.4834 27.45C37.0449 27.45 37.478 27.0008 37.478 26.4394C37.4941 20.3918 32.5531 15.435 26.473 15.435Z" fill="#615D9B"/>
				<path d="M26.473 35.4868C21.4999 35.4868 17.4572 31.4443 17.4572 26.4715C17.4572 25.91 17.0081 25.4769 16.4626 25.4769C15.9172 25.4769 15.468 25.9261 15.468 26.4715C15.468 32.5512 20.409 37.4919 26.4891 37.4919C27.0505 37.4919 27.4837 37.0428 27.4837 36.4974C27.4676 35.9359 27.0185 35.4868 26.473 35.4868Z" fill="#615D9B"/>
				<path d="M26.473 41.1654C18.3556 41.1654 11.7622 34.5724 11.7622 26.4715C11.7622 18.3706 18.3556 11.7615 26.473 11.7615C34.5904 11.7615 41.1678 18.3546 41.1678 26.4555C41.1678 34.5564 34.5744 41.1654 26.473 41.1654ZM26.473 13.7667C19.4625 13.7667 13.7675 19.4614 13.7675 26.4715C13.7675 33.4816 19.4625 39.1602 26.457 39.1602C33.4514 39.1602 39.1464 33.4655 39.1464 26.4715C39.1464 19.4774 33.4675 13.7667 26.473 13.7667Z" fill="white"/>
			</g>
		</g>
	</g>
</svg>
